<svg width="80" height="81" viewBox="0 0 80 81" fill="none" xmlns="http://www.w3.org/2000/svg">
<g clip-path="url(#clip0_2_548)">
<path d="M33.25 80.9606C29.4375 80.9606 25.6625 79.6613 22.625 77.0231C18.8625 73.7681 16.675 69.1744 16.4375 64.0819C16.2125 59.055 18.025 54.12 21.4 50.5763L45.8 24.9563C46.5625 24.1556 47.0875 23.2106 47.3375 22.2131C49.0875 15.1388 49.25 7.17189 47.8375 -1.45123C47.75 -2.00248 48 -2.54061 48.475 -2.80311C48.9375 -3.05248 49.5125 -2.97373 49.8875 -2.56686L79.6375 28.6706C80.0125 29.0644 80.1 29.6681 79.8625 30.1538C79.625 30.6394 79.1125 30.915 78.575 30.8231C70.3625 29.34 62.7875 29.5106 56.0375 31.3481C55.45 31.5056 54.8875 31.7813 54.3625 32.1488L58.6875 36.69C61.9 40.0631 63.675 44.565 63.675 49.3425C63.675 54.12 61.9 58.6088 58.6875 61.995L45.8125 75.5138C42.375 79.11 37.8 80.9475 33.25 80.9606ZM50.7625 1.93502C51.6125 9.45564 51.2625 16.4775 49.6875 22.8431C49.3375 24.2738 48.5875 25.6256 47.5125 26.7413L23.125 52.3613C20.225 55.4063 18.675 59.6325 18.8625 63.9506C19.0625 68.3213 20.95 72.2588 24.1625 75.0544C29.8875 80.0288 38.65 79.425 44.1 73.7025L56.975 60.1838C62.675 54.1988 62.675 44.4731 56.975 38.4881L52.5625 33.855L48.3625 38.265L52.775 42.8981C54.4125 44.6175 55.3125 46.9013 55.3125 49.3425C55.3125 51.7706 54.4125 54.0544 52.775 55.7738L39.85 69.3319C36.5625 72.7838 31.3125 73.1775 27.9125 70.2113C26.0375 68.5838 24.9 66.1819 24.7875 63.6356C24.675 61.0763 25.6 58.5694 27.3125 56.7713L51.7125 31.1513C52.775 30.0356 54.0625 29.2481 55.425 28.8675C61.4875 27.2138 68.175 26.8463 75.3375 27.7388L50.7625 1.93502ZM46.6625 40.0631L29.0375 58.5694C27.8 59.8688 27.1375 61.68 27.2125 63.5175C27.3 65.3813 28.1 67.0613 29.4625 68.2556C31.9125 70.3819 35.725 70.0669 38.1375 67.5338L51.0625 53.9625C53.5 51.4031 53.5 47.2425 51.0625 44.6831L46.6625 40.0631Z" fill="#913737"/>
<path d="M9.64999 74.5819C9.33749 74.5819 9.02499 74.4638 8.78749 74.2144C8.31249 73.7157 8.31249 72.915 8.78749 72.4163L16.8375 63.9638C17.3125 63.465 18.075 63.465 18.55 63.9638C19.025 64.4625 19.025 65.2631 18.55 65.7619L10.5 74.2144C10.275 74.4507 9.96249 74.5819 9.64999 74.5819ZM5.54999 70.2769C5.23749 70.2769 4.92499 70.1588 4.68749 69.9094C4.21249 69.4107 4.21249 68.61 4.68749 68.1113L21.4 50.5631C21.875 50.0644 22.6375 50.0644 23.1125 50.5631C23.5875 51.0619 23.5875 51.8625 23.1125 52.3613L6.41249 69.8963C6.17499 70.1457 5.86249 70.2769 5.54999 70.2769Z" fill="#913737"/>
<path d="M8.475 79.1363C7.55 79.1363 6.675 78.7556 6.025 78.0731L1.0125 72.81C-0.3375 71.3925 -0.3375 69.0825 1.0125 67.665C2.4 66.2081 4.65 66.2475 5.95 67.6256L10.9625 72.8888C11.6125 73.5713 11.975 74.49 11.975 75.4613C11.975 76.4325 11.6125 77.3513 10.9625 78.0338L10.925 78.0731C10.275 78.7556 9.4 79.1363 8.475 79.1363ZM3.5 69.0956C3.2375 69.0956 2.9625 69.2006 2.7625 69.4106C2.3125 69.8831 2.3125 70.5788 2.725 70.9988L7.7375 76.2619C8.15 76.695 8.8 76.695 9.2125 76.2619L9.25 76.2225C9.65 75.7894 9.65 75.1069 9.25 74.6738L4.2375 69.4106C4.0375 69.2006 3.775 69.0956 3.5 69.0956ZM43.0375 70.2638C42.725 70.2638 42.4125 70.1456 42.175 69.8963L28.075 55.0781C27.6 54.5794 27.6 53.7788 28.075 53.28C28.55 52.7813 29.3125 52.7813 29.7875 53.28L43.8875 68.0981C44.3625 68.5969 44.3625 69.3975 43.8875 69.8963C43.6625 70.1325 43.35 70.2638 43.0375 70.2638ZM48.8125 64.2C48.5 64.2 48.1875 64.0819 47.95 63.8325L33.85 49.0144C33.375 48.5156 33.375 47.715 33.85 47.2163C34.325 46.7175 35.0875 46.7175 35.5625 47.2163L49.6625 62.0213C50.1375 62.52 50.1375 63.3206 49.6625 63.8194C49.4375 64.0688 49.125 64.2 48.8125 64.2ZM54.5875 58.1363C54.275 58.1363 53.9625 58.0181 53.725 57.7688L39.625 42.9506C39.15 42.4519 39.15 41.6513 39.625 41.1525C40.1 40.6538 40.8625 40.6538 41.3375 41.1525L55.4375 55.9575C55.9125 56.4563 55.9125 57.2569 55.4375 57.7556C55.2125 58.005 54.9 58.1363 54.5875 58.1363ZM24.3 50.5894C23.9875 50.5894 23.675 50.4713 23.4375 50.2219L19.6 46.1925C19.125 45.6938 19.125 44.8931 19.6 44.3944C20.075 43.8956 20.8375 43.8956 21.3125 44.3944L25.15 48.4238C25.625 48.9225 25.625 49.7231 25.15 50.2219C24.925 50.4581 24.6125 50.5894 24.3 50.5894Z" fill="#913737"/>
<path d="M19.275 47.8069C18.9625 47.8069 18.65 47.6887 18.4125 47.4394C17.9375 46.9406 17.9375 46.14 18.4125 45.6412L20.7875 43.1475C21.2625 42.6487 22.025 42.6487 22.5 43.1475C22.975 43.6462 22.975 44.4469 22.5 44.9456L20.125 47.4394C19.9 47.6887 19.5875 47.8069 19.275 47.8069ZM30.075 44.5256C29.7625 44.5256 29.45 44.4075 29.2125 44.1581L25.375 40.1287C24.9 39.63 24.9 38.8294 25.375 38.3306C25.85 37.8319 26.6125 37.8319 27.0875 38.3306L30.925 42.36C31.4 42.8587 31.4 43.6594 30.925 44.1581C30.7 44.3944 30.3875 44.5256 30.075 44.5256Z" fill="#913737"/>
<path d="M25.05 41.7431C24.7375 41.7431 24.425 41.625 24.1875 41.3756C23.7125 40.8769 23.7125 40.0763 24.1875 39.5775L26.5625 37.0838C27.0375 36.585 27.8 36.585 28.275 37.0838C28.75 37.5825 28.75 38.3831 28.275 38.8819L25.9 41.3756C25.675 41.625 25.3625 41.7431 25.05 41.7431ZM35.8625 38.4619C35.55 38.4619 35.2375 38.3438 35 38.0944L31.1625 34.065C30.6875 33.5663 30.6875 32.7656 31.1625 32.2669C31.6375 31.7681 32.4 31.7681 32.875 32.2669L36.7125 36.2963C37.1875 36.795 37.1875 37.5956 36.7125 38.0944C36.475 38.3306 36.1625 38.4619 35.8625 38.4619Z" fill="#913737"/>
<path d="M30.8375 35.6794C30.525 35.6794 30.2125 35.5612 29.975 35.3119C29.5 34.8131 29.5 34.0125 29.975 33.5137L32.35 31.02C32.825 30.5212 33.5875 30.5212 34.0625 31.02C34.5375 31.5187 34.5375 32.3194 34.0625 32.8181L31.6875 35.3119C31.45 35.5612 31.1375 35.6794 30.8375 35.6794Z" fill="#913737"/>
</g>
<defs>
<clipPath id="clip0_2_548">
<rect width="80" height="84" fill="white" transform="translate(0 -3)"/>
</clipPath>
</defs>
</svg>
